<?xml version="1.0" encoding="UTF-8" standalone="no"?>
<svg xmlns="http://www.w3.org/2000/svg" width="200" height="50" viewBox="0 0 200 50">
  <style>
    .logo-text { font-family: 'Arial', sans-serif; font-weight: bold; }
    .primary { fill: #0d6efd; }
    .secondary { fill: #6c757d; }
    .dark-mode .primary { fill: #ffffff; }
    .dark-mode .secondary { fill: #adb5bd; }
    .icon-path { fill: #0d6efd; }
    .dark-mode .icon-path { fill: #ffffff; }
  </style>
  
  <!-- Логотип иконка -->
  <g transform="translate(10, 10) scale(0.03, 0.03)">
    <path class="icon-path" d="M512 128h32v32h-32zm256 192h-32v-32h32zm-192 192v-32h32v32zm-192-192h32v32h-32zm384-256h32v32h-32zM0 512c0 23.7 5.1 46.2 14.3 66.6l31.5-19.4 20 32.6-32.2 19.8c11.7 16 26.2 30 43 41.2l17.8-33.3 33.8 18-17.8 33.3c18.2 7.7 38 11.9 58.8 11.9 11.8 0 23.3-1.4 34.3-4.1l-5.4-37.9 39.4-5.7 5.4 37.9a191.8 191.8 0 0 0 28.2-11.4l-17.1-33.6 33.8-17.1 16.6 32.7a193.7 193.7 0 0 0 22.2-18.8l-27-27 28.3-28.3 26.2 26.2a186.9 186.9 0 0 0 16.3-24.7l-33.2-16.4 17.7-34 32.1 16.4a192.9 192.9 0 0 0 8.2-30.4l-37.9-5.5 5.7-39.4 36.9 5.3c-.1-2.9-.2-5.8-.2-8.8 0-20.8 4-40.6 11.3-58.8L358 310.7l18-33.8 33.8 17.8c11.9-17.7 26.7-33 44.2-44.8l-20-32.7 31.9-19.5C446.3 186.5 422.8 181 398 181c-9.9 0-19.7.9-29.2 2.6l5.3 36.9-39.4 5.7-5.3-36.9c-11 3.5-21.3 8.3-31 14.1l17.8 33.8-33.8 17.8-16.9-33.5a185.2 185.2 0 0 0-22.2 18.8l27 27-28.3 28.3-26.2-26.2c-6.5 7.8-12.2 16.1-16.9 25.3l32.6 16.9-17.1 33-32.3-16c-4.3 9.8-7.6 20.1-9.8 30.8l37.9 5.5-5.7 39.4-37.4-5.4c-.1 3-.2 6-.2 9 0 20.8-4 40.7-11.3 58.9l33.8-17.8 17.8 33.8-33.8 17.8A193.4 193.4 0 0 0 181 512c0-183.4 148.6-332 332-332V0C229.2 0 0 229.2 0 512zm256-128h32v32h-32zm160 160h-32v-32h32zM0 512c0 282.8 229.2 512 512 512V864c-194.1 0-352-157.9-352-352zm1024-128v32h-32v-32zm-192 192h-32v-32h32zm192-64v32h-32v-32zm-384 32h-32v-32h32zm256-288h32v32h-32zm-64 64h32v32h-32zm-256 256h-32v-32h32z"/>
  </g>
  
  <!-- Основной текст "ТурбоПарсер" -->
  <text x="50" y="30" class="logo-text primary" font-size="24">ТурбоПарсер</text>
</svg> 